<svg width="141" height="41" viewBox="0 0 141 41" fill="none" xmlns="http://www.w3.org/2000/svg">
<path fill-rule="evenodd" clip-rule="evenodd" d="M10.5331 9.8668C9.45807 10.9425 8.60584 11.3015 8.04434 11.5381C7.55238 11.7453 7.28358 11.8586 7.28358 12.2774C7.24971 12.6502 7.59156 12.9202 7.99861 13.2416L7.99862 13.2416C8.20523 13.4048 8.42863 13.5812 8.62822 13.7911C9.30842 14.5063 9.66411 15.5513 9.69107 16.2817C8.32351 18.037 7.23729 20.2482 6.9257 22.9253C6.28616 26.0873 4.7687 28.1826 3.11568 30.4651C2.68904 31.0542 2.25336 31.6558 1.82142 32.2914C1.74671 32.4409 1.82327 32.6278 2.00256 32.6278C2.06025 32.6278 2.75576 32.4749 3.77281 32.2513C5.8423 31.7964 9.24308 31.0489 11.3106 30.7013C11.4508 30.6777 11.5932 30.7075 11.704 30.7965C13.2231 32.0166 15.5357 36.1935 16.5591 38.2602C16.6376 38.4187 16.8573 38.433 16.9499 38.2821C17.7743 36.9386 20.7488 32.0241 21.3747 30.0489C21.4847 29.7017 21.615 29.315 21.7566 28.9072C22.2735 28.8058 22.7583 28.683 23.1951 28.5353C26.0415 27.5337 27.3163 24.6101 28.706 21.4227L28.706 21.4227C29.8055 18.9009 30.977 16.2141 33.0558 14.1835C33.3315 13.8752 33.6542 13.6045 33.9531 13.3536C34.6869 12.7379 35.2777 12.242 34.6806 11.6047C31.0558 9.18664 30.2057 6.59795 29.5782 4.68717C29.0128 2.96532 28.6281 1.79395 26.5567 1.79395C23.1951 1.79395 21.5704 4.09247 21.5704 4.09247L21.5447 4.03597C20.9251 2.67116 20.5268 1.79395 18.657 1.79395C15.4396 1.79395 14.109 4.17712 12.7724 6.57109C12.1057 7.76508 11.4376 8.96176 10.5331 9.8668Z" fill="#EC1D27"/>
<path fill-rule="evenodd" clip-rule="evenodd" d="M3.03471 30.5768C3.06171 30.5395 3.08867 30.5023 3.11559 30.4651C4.76861 28.1827 6.28607 26.0874 6.9256 22.9253C7.23719 20.2483 8.32342 18.037 9.69097 16.2818C9.66402 15.5514 9.30832 14.5063 8.62813 13.7911C8.42854 13.5813 8.20513 13.4048 7.99851 13.2417C7.59147 12.9202 7.24962 12.6503 7.28349 12.2775C7.28349 11.8586 7.55229 11.7453 8.04424 11.5381C8.60575 11.3016 9.45797 10.9425 10.533 9.86682C11.4375 8.96178 12.1056 7.76511 12.7723 6.57111C14.1089 4.17714 15.4395 1.79397 18.6569 1.79397C19.6307 1.79397 20.2054 2.03189 20.62 2.45271C21.0016 2.83992 21.2477 3.38197 21.5446 4.03599L21.5703 4.09249C21.5703 4.09249 21.5974 4.05408 21.652 3.98719C21.652 3.98719 21.652 3.98718 21.652 3.98718C21.8219 3.7788 22.2577 3.29406 22.9665 2.83315C23.7904 2.29746 24.9833 1.79397 26.5566 1.79397C28.628 1.79397 29.0127 2.96534 29.5781 4.6872C30.2056 6.59798 31.0557 9.18666 34.6805 11.6047C35.2776 12.2421 34.6868 12.7379 33.953 13.3536C33.6541 13.6045 33.3314 13.8752 33.0557 14.1836C30.977 16.2141 29.8055 18.9009 28.7059 21.4227L28.7059 21.4228C27.3162 24.6101 26.0414 27.5337 23.1951 28.5353C22.7582 28.683 22.2734 28.8058 21.7565 28.9072C21.6149 29.315 21.4846 29.7017 21.3746 30.049C20.8969 31.5566 19.0508 34.7768 17.837 36.8142C17.8095 36.8604 17.7823 36.9059 17.7555 36.9508C17.5171 37.3499 17.3062 37.6983 17.1391 37.9726C17.0675 38.09 17.004 38.1938 16.9498 38.2822C16.8572 38.433 16.6375 38.4188 16.559 38.2602C16.5093 38.1599 16.4567 38.0547 16.4012 37.9451C16.2382 37.623 16.051 37.2631 15.8458 36.8799C15.8239 36.8391 15.8019 36.7981 15.7796 36.7568C14.6155 34.5965 12.9097 31.765 11.7039 30.7966C11.5931 30.7075 11.4507 30.6778 11.3105 30.7013C9.34476 31.0318 6.1738 31.7238 4.08771 32.1821C3.9797 32.2059 3.87459 32.229 3.77272 32.2513C3.7076 32.2657 3.64381 32.2797 3.58141 32.2934C3.05901 32.4082 2.63481 32.5012 2.35753 32.5597C2.31835 32.5679 2.28211 32.5755 2.24894 32.5824C2.10692 32.6117 2.02117 32.6278 2.00246 32.6278C1.82318 32.6278 1.74662 32.4409 1.82132 32.2914C1.88164 32.2026 1.94203 32.1146 2.00246 32.0271C2.2426 31.6794 2.48334 31.3413 2.7225 31.009C2.82693 30.8639 2.93106 30.72 3.03471 30.5768ZM10.9748 32.5817C11.4534 33.1168 12.0927 34.018 12.7909 35.152C13.6528 36.5516 14.4604 38.0629 14.9525 39.0567L16.559 38.2602L14.9525 39.0567C15.6263 40.4173 17.6119 40.6316 18.4776 39.2209C18.8948 38.541 19.8579 36.9547 20.7988 35.2827C21.704 33.6744 22.7045 31.7875 23.0836 30.5912C23.1006 30.5377 23.1181 30.4831 23.1361 30.4274C23.3514 30.3685 23.563 30.3045 23.7692 30.2348L23.7795 30.2313L23.7898 30.2277C25.6892 29.5593 26.997 28.2604 27.9817 26.8039C28.9229 25.4118 29.6447 23.7561 30.3127 22.2237L30.3492 22.1401L30.3492 22.1401C30.3529 22.1317 30.3566 22.1232 30.3602 22.1148C31.4801 19.5467 32.5273 17.2068 34.3081 15.4673L34.3515 15.4249L34.3918 15.3798C34.5678 15.183 34.79 14.9926 35.1051 14.7282L33.953 13.3536L35.1051 14.7282C35.1261 14.7106 35.1493 14.6913 35.1743 14.6705C35.4713 14.4237 36.0314 13.9583 36.3615 13.3962C36.5791 13.0258 36.7779 12.4926 36.7025 11.8509C36.628 11.2162 36.3145 10.7257 35.9885 10.3778L35.847 10.2268L35.675 10.1121C34.0667 9.03917 33.1295 7.96923 32.5246 7.00323C31.9084 6.01919 31.5954 5.08335 31.2814 4.12718C31.267 4.08337 31.2523 4.03837 31.2373 3.9923C30.9941 3.24689 30.66 2.22274 30.0059 1.44221C29.1586 0.43113 27.9823 0 26.5566 0C24.5905 0 23.0718 0.630329 22.0111 1.315C21.9451 1.24178 21.876 1.17048 21.8035 1.10168C20.9605 0.301424 19.8931 0 18.6569 0C16.5239 0 14.9462 0.820824 13.7468 2.01105C12.6634 3.0862 11.8911 4.4704 11.2611 5.59947C11.243 5.63191 11.225 5.66414 11.2071 5.69615C10.513 6.93932 9.96145 7.90171 9.26529 8.59829C8.43806 9.42604 7.83212 9.68113 7.37135 9.8751C7.36372 9.87831 7.35613 9.88151 7.34859 9.88469C7.33584 9.89005 7.32069 9.8963 7.30339 9.90343C7.11739 9.98009 6.68333 10.159 6.3363 10.4464C6.09955 10.6424 5.86361 10.9123 5.69963 11.2751C5.55253 11.6005 5.49956 11.9207 5.4917 12.2013C5.44716 13.0078 5.82021 13.6028 6.11425 13.9461C6.36488 14.2388 6.67909 14.4858 6.85141 14.6212C6.86438 14.6314 6.87654 14.641 6.88781 14.6499L6.88782 14.6499C6.88984 14.6515 6.89184 14.6531 6.89384 14.6547C7.11039 14.8257 7.23231 14.9258 7.32936 15.0278L8.62813 13.7911L7.32936 15.0278C7.48334 15.1897 7.63041 15.4241 7.74073 15.6991C7.75945 15.7458 7.77621 15.7913 7.79116 15.8355C6.49676 17.6801 5.48187 19.9482 5.15425 22.6383C4.5931 25.337 3.31218 27.1364 1.66385 29.4124L1.65727 29.4215C1.23469 30.005 0.785827 30.6248 0.338767 31.2826L0.271357 31.3818L0.217746 31.4891C-0.057333 32.0396 -0.0841659 32.7145 0.208471 33.3087C0.530375 33.9623 1.20297 34.4217 2.00246 34.4217C2.13596 34.4217 2.24747 34.4058 2.26389 34.4034L2.26555 34.4032C2.30341 34.3979 2.33729 34.3923 2.36062 34.3882C2.40884 34.3798 2.46158 34.3696 2.51146 34.3596C2.61368 34.3392 2.74801 34.3109 2.90389 34.2775C3.21615 34.2104 3.64714 34.1157 4.15104 34.0049L4.15738 34.0035C6.03933 33.5899 8.94561 32.9515 10.9748 32.5817Z" fill="black"/>
<path d="M10.5331 9.8668C8.51616 11.885 7.28357 11.3805 7.28357 12.2774C7.23251 12.8395 8.0354 13.1678 8.62821 13.7911C9.33629 14.5356 9.69271 15.6376 9.69271 16.3699C9.69271 17.6886 9.1393 19.7427 8.65747 21.5311L8.62821 21.6397L11.2615 29.1519C11.2615 29.1519 19.2172 29.8807 23.1951 28.5353C28.2936 26.7413 28.3496 18.7806 33.0558 14.1835C34.0083 13.1184 35.521 12.5017 34.6806 11.6047C27.7893 7.00766 30.9268 1.79395 26.5567 1.79395C23.1951 1.79395 21.5704 4.09247 21.5704 4.09247C20.9357 2.69542 20.5525 1.79395 18.657 1.79395C13.8349 1.79395 13.2511 7.14716 10.5331 9.8668Z" fill="#EC1D27"/>
<path d="M17.9845 4.3728C17.5363 4.3728 16.976 4.76523 16.6959 4.76523C16.4158 4.76523 16.3037 4.54098 16.3037 4.3728C16.3037 3.23497 17.808 2.41064 18.7689 2.41064C20.1695 2.41064 20.6178 3.58794 20.6178 3.9243C20.6178 4.26067 20.3376 4.98947 19.4412 4.98947C18.5448 4.98947 18.5448 4.3728 17.9845 4.3728Z" fill="white"/>
<path d="M25.6603 4.3728C25.2121 4.3728 24.6518 4.76523 24.3717 4.76523C24.0915 4.76523 23.9795 4.54098 23.9795 4.3728C23.9795 3.23497 25.4837 2.41064 26.4447 2.41064C27.8453 2.41064 28.2935 3.58794 28.2935 3.9243C28.2935 4.26067 28.0134 4.98947 27.117 4.98947C26.2206 4.98947 26.2206 4.3728 25.6603 4.3728Z" fill="white"/>
<path d="M10.141 25.8444L11.2055 14.576C11.1495 14.6134 11.015 14.6657 10.9254 14.576C10.8357 14.4863 9.99161 13.0811 9.58075 12.3896C9.5434 12.3523 9.4911 12.2551 9.58075 12.1654C9.6928 12.0533 13.2225 8.9699 13.5586 8.68959C13.8948 8.40928 14.8472 7.56836 16.36 7.56836C17.8727 7.56836 18.489 9.02596 20.2818 9.02596C22.0747 9.02596 22.803 7.84867 24.3718 7.84867C25.9405 7.84867 27.1171 8.91383 27.8454 10.0911C28.5738 11.2684 29.9184 12.2215 31.8793 12.4457C31.0203 13.1184 28.8982 15.3308 27.8454 17.3231C25.2682 22.2004 24.8239 27.1676 22.2428 32.4036C20.7853 35.3601 18.4641 37.5011 17.484 38.5477L17.0323 39.131L15.6316 28.1429L10.141 25.8444Z" fill="black"/>
<path fill-rule="evenodd" clip-rule="evenodd" d="M23.5132 23.9376L23.5168 23.9383C23.3207 24.5714 22.9567 25.5731 22.5663 26.6473C22.1386 27.824 21.6793 29.0877 21.3747 30.049C20.7488 32.0242 17.7743 36.9386 16.9499 38.2822C16.8573 38.433 16.6376 38.4188 16.5591 38.2602C15.5357 36.1936 13.2231 32.0167 11.704 30.7966C11.5932 30.7076 11.4508 30.6778 11.3106 30.7014C9.24308 31.049 5.8423 31.7965 3.77281 32.2514C2.75576 32.4749 2.06025 32.6278 2.00256 32.6278C1.82327 32.6278 1.74671 32.4409 1.82142 32.2914C2.25336 31.6558 2.68904 31.0543 3.11568 30.4652C4.7687 28.1827 6.28616 26.0874 6.9257 22.9253C7.68919 16.3658 13.1036 12.6027 15.9117 11.4926L21.7945 10.3154C22.7843 10.1285 25.2905 10.0463 27.3971 11.2123C29.5037 12.3784 30.5533 12.7821 30.8148 12.8381C27.0052 15.3 25.0226 19.8431 23.5132 23.9376Z" fill="#EC1D27"/>
<mask id="mask0" mask-type="alpha" maskUnits="userSpaceOnUse" x="1" y="10" width="30" height="29">
<path fill-rule="evenodd" clip-rule="evenodd" d="M23.5132 23.9376L23.5168 23.9383C23.3207 24.5714 22.9567 25.5731 22.5663 26.6473C22.1386 27.824 21.6793 29.0877 21.3747 30.049C20.7488 32.0242 17.7743 36.9386 16.9499 38.2822C16.8573 38.433 16.6376 38.4188 16.5591 38.2602C15.5357 36.1936 13.2231 32.0167 11.704 30.7966C11.5932 30.7076 11.4508 30.6778 11.3106 30.7014C9.24308 31.049 5.8423 31.7965 3.77281 32.2514C2.75576 32.4749 2.06025 32.6278 2.00256 32.6278C1.82327 32.6278 1.74671 32.4409 1.82142 32.2914C2.25336 31.6558 2.68904 31.0543 3.11568 30.4652C4.7687 28.1827 6.28616 26.0874 6.9257 22.9253C7.68919 16.3658 13.1036 12.6027 15.9117 11.4926L21.7945 10.3154C22.7843 10.1285 25.2905 10.0463 27.3971 11.2123C29.5037 12.3784 30.5533 12.7821 30.8148 12.8381C27.0052 15.3 25.0226 19.8431 23.5132 23.9376Z" fill="#EC1D27"/>
</mask>
<g mask="url(#mask0)">
<path fill-rule="evenodd" clip-rule="evenodd" d="M22.7408 23.8517L22.7926 23.8621C22.6162 24.4317 22.2887 25.3328 21.9375 26.2991C21.5527 27.3577 21.1396 28.4945 20.8655 29.3593C20.3079 31.1191 17.678 35.4723 16.9069 36.7302C16.8144 36.881 16.5934 36.8673 16.5147 36.7088C15.5887 34.8448 13.5401 31.1528 12.1825 30.0455C12.0723 29.9557 11.9295 29.9263 11.7894 29.95C9.92735 30.2643 6.88493 30.9331 5.03062 31.3406C4.11566 31.5418 3.48996 31.6793 3.43806 31.6793C3.27677 31.6793 3.2079 31.5112 3.2751 31.3767C3.66369 30.8049 4.05563 30.2637 4.43944 29.7337C5.92979 27.6759 7.29766 25.7872 7.87077 22.932C8.58443 16.9532 13.6107 12.9953 16.1356 11.9971L22.0745 8.4092C27.8324 4.20777 30.7994 6.63085 32.7258 8.20403C33.1394 8.54182 33.5051 8.84044 33.8401 9.02587C35.3104 9.83974 31.7609 11.5514 30.2056 12.3014C29.7562 12.5181 29.4733 12.6545 29.526 12.6658C26.031 14.9244 24.1576 19.7618 22.7408 23.8517Z" fill="#EC1D27"/>
<path fill-rule="evenodd" clip-rule="evenodd" d="M22.9888 23.231C22.9652 23.2981 22.9417 23.365 22.9183 23.4317C22.9112 23.4521 22.904 23.4725 22.8969 23.4928C22.8842 23.5292 22.8715 23.5656 22.8588 23.6019C22.7844 23.8153 22.8025 23.8334 22.7481 24.0027C22.7306 24.0573 22.7119 24.1144 22.6922 24.1737C22.6795 24.212 22.6664 24.2513 22.6528 24.2914C22.6201 24.3884 22.5851 24.4905 22.5481 24.5971L22.0762 24.4027C22.1061 24.3168 22.1345 24.2341 22.1613 24.1551L22.1492 24.1901L22.3173 23.7048C22.3894 23.4965 22.4628 23.2862 22.5376 23.0742L22.9888 23.231ZM22.2017 25.5706L21.7802 25.4182C21.6953 25.6532 21.6066 25.8971 21.5162 26.1459C21.4068 26.447 21.2948 26.7551 21.1843 27.0616L21.606 27.2137C21.7162 26.9079 21.828 26.6004 21.9375 26.2991C22.0278 26.0505 22.1166 25.8061 22.2017 25.5706ZM21.1729 28.4365L20.7493 28.2901C20.6351 28.6208 20.5294 28.9363 20.4383 29.2238C20.3889 29.3796 20.3195 29.5641 20.2318 29.7736L20.6453 29.9468C20.7362 29.7296 20.8108 29.532 20.8655 29.3593C20.9551 29.0767 21.0595 28.765 21.1729 28.4365ZM20.3 30.7096L19.896 30.5154C19.73 30.861 19.54 31.2347 19.3354 31.6222L19.7318 31.8316C19.9382 31.4405 20.1309 31.0617 20.3 30.7096ZM19.3346 32.5694L18.9416 32.3538C18.7421 32.7179 18.5362 33.0852 18.3314 33.4445L18.7208 33.6667C18.9266 33.3056 19.1337 32.9361 19.3346 32.5694ZM18.3026 34.3931L17.9151 34.1676C17.6916 34.5521 17.4762 34.9169 17.2798 35.2464L17.6647 35.4762C17.8618 35.1455 18.078 34.7793 18.3026 34.3931ZM17.2327 36.1952L16.8493 35.9629C16.8096 36.0285 16.7716 36.0911 16.7355 36.1505C16.7053 36.0914 16.6744 36.0311 16.6427 35.9696L16.2444 36.1753C16.3424 36.3653 16.4329 36.5442 16.5147 36.7088C16.5377 36.755 16.5728 36.789 16.6133 36.8101L16.6959 36.8884L16.6961 36.8883L16.6963 36.8881C16.6966 36.8878 16.697 36.8876 16.6973 36.8874C16.6978 36.8871 16.6982 36.8869 16.6985 36.8868L16.7989 36.821C16.8414 36.8046 16.8797 36.7745 16.9069 36.7302C16.9938 36.5884 17.1042 36.4074 17.2327 36.1952ZM16.6979 36.8851C16.6974 36.8858 16.697 36.8865 16.6965 36.8872L16.6971 36.8862L16.6979 36.8851ZM15.8723 35.4684L16.2672 35.2562C16.0861 34.9189 15.8899 34.5623 15.6834 34.1984L15.2936 34.4199C15.4983 34.7805 15.6928 35.134 15.8723 35.4684ZM14.8935 33.7286L15.2794 33.5004C15.0739 33.1525 14.8617 32.8043 14.6469 32.466L14.2686 32.7065C14.4804 33.0402 14.6901 33.3842 14.8935 33.7286ZM13.8312 32.0382L14.2025 31.7869C13.962 31.4313 13.7205 31.0945 13.4837 30.7912L13.1305 31.0673C13.3595 31.3606 13.595 31.6888 13.8312 32.0382ZM12.6149 30.4575L12.9426 30.1516C12.783 29.9804 12.6233 29.8265 12.4657 29.6979C12.3996 29.644 12.3277 29.601 12.2525 29.5688L12.0758 29.9809C12.1136 29.9972 12.1495 30.0186 12.1825 30.0455C12.3201 30.1578 12.4649 30.2967 12.6149 30.4575ZM11.9141 29.9431L11.9415 29.4955C11.8649 29.4908 11.7888 29.4953 11.7148 29.5077C11.5001 29.544 11.2703 29.5848 11.0293 29.6292L11.1105 30.0703C11.3498 30.0262 11.5773 29.9858 11.7894 29.95C11.831 29.943 11.8729 29.9406 11.9141 29.9431ZM10.2061 30.243L10.1197 29.803C9.68256 29.8889 9.22476 29.982 8.76241 30.078L8.85345 30.5171C9.31467 30.4214 9.77088 30.3286 10.2061 30.243ZM7.95296 30.7063L7.85992 30.2676C7.39862 30.3655 6.94282 30.4637 6.50849 30.5581L6.60358 30.9964C7.03742 30.9021 7.49251 30.8041 7.95296 30.7063ZM5.70402 31.1928L5.6081 30.7547C5.37115 30.8066 5.14599 30.8561 4.93615 30.9022L4.93445 30.9026L4.93405 30.9027C4.76457 30.9399 4.60514 30.975 4.45746 31.0074L4.55342 31.4455C4.70134 31.413 4.86101 31.3779 5.03062 31.3406C5.24095 31.2944 5.46657 31.2448 5.70402 31.1928ZM3.91692 31.584L3.85972 31.3174C3.90158 31.2571 3.94348 31.1971 3.98541 31.1373L3.61853 30.8796C3.50396 31.043 3.38939 31.2085 3.2751 31.3767C3.25561 31.4157 3.24756 31.4575 3.24991 31.4973L3.32178 31.6415C3.35199 31.665 3.39111 31.6793 3.43806 31.6793C3.4642 31.6793 3.63595 31.6444 3.91692 31.584ZM4.08557 30.2234L4.44927 30.4855C4.56732 30.3215 4.68501 30.159 4.80238 29.9969L4.80272 29.9964C4.95396 29.7876 5.10472 29.5794 5.2536 29.3717L4.88936 29.1103C4.74112 29.3172 4.59092 29.5246 4.43944 29.7337C4.32213 29.8957 4.20407 30.0587 4.08557 30.2234ZM5.4781 28.2714L5.84825 28.5243C6.14183 28.0941 6.42516 27.6562 6.69093 27.2014L6.304 26.975C6.04495 27.4184 5.76764 27.8471 5.4781 28.2714ZM6.79198 26.0739L7.19326 26.2737C7.42361 25.8105 7.63338 25.3257 7.81658 24.8104L7.39429 24.6601C7.2176 25.1571 7.01505 25.6253 6.79198 26.0739ZM23.2599 22.3875L22.8389 22.2336C22.9906 21.818 23.1482 21.3982 23.3129 20.9776L23.7302 21.1412C23.567 21.558 23.4106 21.9744 23.2599 22.3875ZM24.0621 20.3177L23.6481 20.1456C23.82 19.7315 23.9996 19.3184 24.1878 18.9095L24.5949 19.0971C24.4093 19.5003 24.2321 19.9081 24.0621 20.3177ZM24.9783 18.2963L24.5772 18.0961C24.7797 17.6898 24.9921 17.2895 25.2153 16.8985L25.6045 17.121C25.3859 17.5039 25.1775 17.8967 24.9783 18.2963ZM26.0617 16.3599C26.3017 15.9808 26.5533 15.6144 26.8177 15.264L26.46 14.9937C26.1874 15.3549 25.9289 15.7316 25.683 16.12L26.0617 16.3599ZM27.3748 14.5731L27.0356 14.2798C27.3394 13.9281 27.6596 13.5953 27.9978 13.286L28.3002 13.617C27.9761 13.9134 27.6681 14.2334 27.3748 14.5731ZM31.3777 11.7223L31.1728 11.3234C31.493 11.1588 31.8233 10.9817 32.1386 10.7989L32.3633 11.187C32.0396 11.3746 31.7022 11.5554 31.3777 11.7223ZM32.9994 10.7947C33.3528 10.5605 33.6598 10.3234 33.8734 10.0956L33.5465 9.7887C33.3678 9.97932 33.094 10.1941 32.7519 10.4207L32.9994 10.7947ZM34.1859 9.44147L33.7414 9.4992C33.7424 9.50657 33.7446 9.51079 33.7446 9.51079C33.7446 9.51079 33.7435 9.5089 33.74 9.50465C33.7287 9.4908 33.6969 9.45918 33.6231 9.41831C33.4913 9.34537 33.3603 9.26014 33.2307 9.16829L33.4897 8.80226C33.6104 8.8878 33.727 8.96328 33.8401 9.02587C34.0583 9.14666 34.1659 9.28722 34.1859 9.44147ZM33.0488 8.46611L32.7688 8.81635C32.6627 8.73139 32.5537 8.64239 32.4434 8.55229L32.4424 8.55149C32.2674 8.40857 32.0878 8.26196 31.8992 8.11437L32.1752 7.76105C32.3682 7.91198 32.5512 8.06149 32.7258 8.20403C32.8368 8.29469 32.9443 8.38252 33.0488 8.46611ZM31.4138 7.2064L31.1655 7.57977C30.806 7.34039 30.4201 7.12029 30.0005 6.94311L30.1748 6.52991C30.6261 6.72047 31.0369 6.95539 31.4138 7.2064ZM29.2819 6.23206L29.1747 6.66754C28.7766 6.56945 28.3479 6.51317 27.8836 6.51545L27.8814 6.06697C28.3838 6.06449 28.8493 6.12547 29.2819 6.23206ZM26.9441 6.14258L27.0122 6.58586C26.6093 6.64786 26.1799 6.75327 25.7217 6.91179L25.5752 6.48791C26.0573 6.32115 26.5129 6.20894 26.9441 6.14258ZM24.7013 6.83845L24.8867 7.24677C24.5032 7.42114 24.1013 7.63114 23.6803 7.88134L23.4514 7.49572C23.8854 7.23783 24.3017 7.02011 24.7013 6.83845ZM20.6887 9.24638L19.501 9.96397L19.7326 10.3479L20.9204 9.63032L20.6887 9.24638ZM18.7091 10.4424L18.9408 10.8263L17.753 11.5439L17.5214 11.1599L18.7091 10.4424ZM14.6589 12.7617L14.8958 13.1424C14.5332 13.3682 14.1512 13.6327 13.7609 13.9344L13.4869 13.5794C13.8887 13.2688 14.2832 12.9957 14.6589 12.7617ZM12.7514 14.1844C12.405 14.4872 12.0581 14.8164 11.7177 15.1713L12.0411 15.4819C12.3721 15.1368 12.7094 14.8166 13.0462 14.5222L12.7514 14.1844ZM11.0788 15.8781L11.42 16.1689C11.1258 16.5145 10.8409 16.8802 10.5703 17.2654L10.2036 17.0075C10.4826 16.6104 10.7761 16.2337 11.0788 15.8781ZM9.6815 17.8043L10.0642 18.0378C9.82741 18.4263 9.60665 18.8318 9.40624 19.2534L9.00148 19.0607C9.20886 18.6245 9.43706 18.2054 9.6815 17.8043ZM8.62382 19.9355L9.04153 20.0981C8.87719 20.5207 8.73398 20.9578 8.61565 21.4087L8.18214 21.2948C8.30496 20.8267 8.45352 20.3734 8.62382 19.9355ZM7.69699 23.6811L8.13031 23.7957C8.19667 23.5446 8.2568 23.2864 8.31021 23.0203L8.31371 23.0029L8.31582 22.9852C8.3433 22.755 8.37741 22.5279 8.41776 22.304L7.97665 22.2244C7.93475 22.457 7.89931 22.6929 7.87077 22.932C7.81913 23.1893 7.76104 23.4387 7.69699 23.6811ZM15.4875 12.2918L15.6905 12.6917C15.9093 12.5804 16.1137 12.488 16.3003 12.4143L16.3352 12.4005L16.9612 12.0223L16.7295 11.6383L16.1356 11.9971C15.9344 12.0767 15.7172 12.1751 15.4875 12.2918ZM21.4806 8.76799L21.7122 9.15193L22.3228 8.78306L22.3385 8.77157C22.5307 8.63137 22.7194 8.49892 22.9046 8.37391L22.654 8.00206C22.464 8.13026 22.2709 8.26588 22.0745 8.4092L21.4806 8.76799ZM30.7095 12.057L30.5124 11.6542C30.3313 11.7429 30.1623 11.8244 30.011 11.8973C29.9353 11.9338 29.8638 11.9683 29.7977 12.0003L29.941 12.2961L29.62 12.2273C29.641 12.2318 29.8171 12.2697 29.9121 12.4434C29.9381 12.4307 29.9651 12.4175 29.9932 12.4039C30.037 12.3827 30.0832 12.3604 30.1317 12.337C30.1558 12.3254 30.1804 12.3135 30.2056 12.3014C30.3568 12.2284 30.527 12.1464 30.7095 12.057ZM29.8047 12.4962L29.6731 12.468L29.5075 12.1437C29.4364 12.1801 29.3642 12.2184 29.3107 12.2531L29.3087 12.2544C29.295 12.2632 29.2463 12.2943 29.1995 12.3436C29.0327 12.454 28.8697 12.5698 28.7104 12.6907L28.9813 13.048C29.0379 13.0051 29.095 12.9628 29.1526 12.9212C29.2134 12.8773 29.2746 12.8342 29.3364 12.7919C29.3991 12.749 29.4623 12.707 29.526 12.6658C29.5201 12.6645 29.5184 12.6617 29.5206 12.6575C29.5221 12.6546 29.5252 12.6512 29.53 12.6471C29.5535 12.6269 29.6163 12.5917 29.7107 12.5435C29.7109 12.5434 29.7112 12.5432 29.7114 12.5431C29.7398 12.5286 29.7709 12.513 29.8047 12.4962Z" fill="white"/>
</g>
<path fill-rule="evenodd" clip-rule="evenodd" d="M20.454 13.0421L22.5226 12.9501C23.8468 12.8323 24.4463 12.6106 25.2119 11.8849C25.2119 11.8849 25.6041 12.7819 27.0608 12.7819C28.5175 12.7819 29.3019 11.7167 29.3019 11.7167L28.2373 11.3243L27.453 9.86668L15.1271 9.25L14.903 11.3243L15.4072 11.1C15.9226 11.9142 17.2561 13.0622 18.7128 12.5016C18.6952 12.5508 18.6812 12.5961 18.6705 12.6377C16.8419 13.8948 16.106 17.7908 15.4112 21.4693C14.9286 24.0244 14.4658 26.4746 13.6704 27.8624C15.0795 26.6344 15.8149 23.8841 16.573 21.0488C17.4615 17.7256 18.3814 14.2854 20.454 13.0421Z" fill="black"/>
<mask id="mask1" mask-type="alpha" maskUnits="userSpaceOnUse" x="9" y="8" width="23" height="25">
<path d="M11.0932 15.2489L15.7434 12.2776L9.46844 32.3476L22.9709 29.8249C23.307 28.7784 24.0354 26.4275 24.2595 25.396C24.5396 24.1066 26.2764 19.8459 27.7331 17.4353C28.8985 15.5068 30.908 13.6792 31.767 13.0064C29.8061 12.7822 28.4615 11.9413 27.7331 10.764C27.0048 9.58669 25.8282 8.52152 24.2595 8.52152C22.6907 8.52152 21.9624 9.69881 20.1695 9.69881C18.3767 9.69881 17.7604 8.24121 16.2477 8.24121C14.7349 8.24121 13.7825 9.08213 13.4463 9.36244C13.1102 9.64275 9.58049 12.7261 9.46844 12.8383C9.3788 12.9279 9.43109 13.0251 9.46844 13.0625C9.8793 13.7539 10.7234 15.1592 10.8131 15.2489C10.9027 15.3386 11.0372 15.2863 11.0932 15.2489Z" fill="black"/>
</mask>
<g mask="url(#mask1)">
<path d="M13.4463 9.41864V7.96104V7.12012H28.8536V11.605C28.6482 11.8293 27.9796 12.2778 26.9487 12.2778C25.9178 12.2778 25.436 11.306 25.3239 10.8202C25.0438 11.306 24.1474 12.2778 22.8027 12.2778C21.4581 12.2778 20.7484 11.306 20.5617 10.8202C20.2815 11.1565 19.3627 11.8293 17.9284 11.8293C16.4941 11.8293 15.9488 10.6333 15.8554 10.0353C15.706 10.2222 15.2391 10.5959 14.5668 10.5959C13.8945 10.5959 13.5397 9.81107 13.4463 9.41864Z" fill="white"/>
</g>
<path d="M51.8306 14.6654C53.3591 13.9076 54.4888 12.4907 54.4888 9.59105V9.3604C54.4888 4.05535 52.9271 2.17716 47.2453 2.17716H42.2612V28.5377H47.2453C52.9271 28.5047 54.8211 26.5936 54.8211 21.6839V20.333C54.8211 17.1367 53.5252 15.4892 51.8306 14.6654ZM49.5047 9.3604V10.2501C49.5047 12.1612 49.1725 12.4907 47.2453 12.4907V7.11975C49.1725 7.11975 49.5047 7.44926 49.5047 9.3604ZM47.2453 23.5951V17.4333C49.1725 17.4333 49.837 17.7628 49.837 19.6739V21.3544C49.837 23.2656 49.1725 23.5951 47.2453 23.5951Z" fill="#F9F9F9"/>
<path d="M62.0791 1.84766C58.0586 1.84766 55.8324 4.05535 55.8324 9.3604V21.3544C55.8324 26.6595 58.0586 28.8672 62.0791 28.8672C66.0996 28.8672 68.3258 26.6595 68.3258 21.3544V9.3604C68.3258 4.05535 66.0996 1.84766 62.0791 1.84766ZM63.3417 21.0249C63.3417 23.2656 63.1756 23.9246 62.0791 23.9246C60.9826 23.9246 60.8165 23.2656 60.8165 21.0249V9.6899C60.8165 7.44926 60.9826 6.79025 62.0791 6.79025C63.1756 6.79025 63.3417 7.44926 63.3417 9.6899V21.0249Z" fill="#F9F9F9"/>
<path d="M75.5854 1.84766C71.5649 1.84766 69.3387 4.05535 69.3387 9.3604V21.3544C69.3387 26.6595 71.5649 28.8672 75.5854 28.8672C79.6058 28.8672 81.832 26.6595 81.832 21.3544V9.3604C81.832 4.05535 79.6058 1.84766 75.5854 1.84766ZM76.848 21.0249C76.848 23.2656 76.6818 23.9246 75.5854 23.9246C74.4889 23.9246 74.3227 23.2656 74.3227 21.0249V9.6899C74.3227 7.44926 74.4889 6.79025 75.5854 6.79025C76.6818 6.79025 76.848 7.44926 76.848 9.6899V21.0249Z" fill="#F9F9F9"/>
<path d="M82.8449 2.17716V28.5377H87.829V2.17716H82.8449ZM96.0693 2.17716H90.9191L87.829 15.3574L90.9191 28.5377H96.0693L92.7798 15.3574L96.0693 2.17716Z" fill="#F9F9F9"/>
<path d="M105.41 24.436C105.41 20.2569 100.619 10.0256 100.619 5.95462C100.619 5.01794 100.907 4.29742 102.096 4.29742C103.609 4.29742 104.186 4.58563 104.186 5.55833C104.186 6.53104 103.717 7.82797 102.096 11.7548H104.474C104.87 9.30504 104.87 6.56706 104.87 5.19807C104.87 2.96446 103.969 1.84766 102.096 1.84766C99.8264 1.84766 97.917 3.18062 97.917 6.38693C97.917 11.5747 102.708 20.0048 102.708 24.7602C102.708 25.6969 102.42 26.4174 101.231 26.4174C99.4661 26.4174 98.7816 26.1292 98.7816 25.0844C98.7816 23.9316 99.4661 21.698 101.087 18.5997H98.4934C98.1692 20.5812 98.0971 23.2111 98.0971 25.5167C98.0971 27.7504 99.1059 28.8672 101.231 28.8672C103.501 28.8672 105.41 27.5342 105.41 24.436Z" fill="#F9F9F9"/>
<path d="M109.79 2.20792H107.088V28.5069H113.681V26.1652H109.79V2.20792Z" fill="#F9F9F9"/>
<path d="M120.033 2.20792V24.3639C120.033 25.6248 119.816 26.4174 118.88 26.4174C118.015 26.4174 117.295 26.0211 117.295 23.4272V2.20792H114.593V24.6521C114.593 27.7504 115.962 28.8672 118.447 28.8672C120.789 28.8672 122.735 27.5342 122.735 24.0036V2.20792H120.033Z" fill="#F9F9F9"/>
<path d="M123.983 2.20792V4.54961H126.973V28.5069H129.675V4.54961H132.665V2.20792H123.983Z" fill="#F9F9F9"/>
<path d="M141 24.436C141 20.2569 136.209 10.0256 136.209 5.95462C136.209 5.01794 136.497 4.29742 137.686 4.29742C139.199 4.29742 139.775 4.58563 139.775 5.55833C139.775 6.53104 139.307 7.82797 137.686 11.7548H140.063C140.46 9.30504 140.46 6.56706 140.46 5.19807C140.46 2.96446 139.559 1.84766 137.686 1.84766C135.416 1.84766 133.507 3.18062 133.507 6.38693C133.507 11.5747 138.298 20.0048 138.298 24.7602C138.298 25.6969 138.01 26.4174 136.821 26.4174C135.056 26.4174 134.371 26.1292 134.371 25.0844C134.371 23.9316 135.056 21.698 136.677 18.5997H134.083C133.759 20.5812 133.687 23.2111 133.687 25.5167C133.687 27.7504 134.696 28.8672 136.821 28.8672C139.091 28.8672 141 27.5342 141 24.436Z" fill="#F9F9F9"/>
</svg>
