<svg width="521" height="145" viewBox="0 0 521 145" fill="none" xmlns="http://www.w3.org/2000/svg">
<path d="M49.844 70.1966C57.8052 66.2049 63.6895 58.7421 63.6895 43.4694V42.2546C63.6895 14.3126 55.5553 4.42011 25.9604 4.42011H0V143.262H25.9604C55.5553 143.089 65.4202 133.023 65.4202 107.163V100.048C65.4202 83.213 58.6705 74.5354 49.844 70.1966ZM37.7291 42.2546V46.9405C37.7291 57.0066 35.9984 58.7421 25.9604 58.7421V30.453C35.9984 30.453 37.7291 32.1885 37.7291 42.2546ZM25.9604 117.229V84.775C35.9984 84.775 39.4598 86.5105 39.4598 96.5766V105.428C39.4598 115.494 35.9984 117.229 25.9604 117.229Z" fill="white"/>
<path d="M103.225 2.68457C82.2837 2.68457 70.688 14.3126 70.688 42.2546V105.428C70.688 133.37 82.2837 144.998 103.225 144.998C124.166 144.998 135.762 133.37 135.762 105.428V42.2546C135.762 14.3126 124.166 2.68457 103.225 2.68457ZM109.802 103.692C109.802 115.494 108.936 118.965 103.225 118.965C97.5138 118.965 96.6484 115.494 96.6484 103.692V43.9901C96.6484 32.1885 97.5138 28.7175 103.225 28.7175C108.936 28.7175 109.802 32.1885 109.802 43.9901V103.692Z" fill="white"/>
<path d="M173.575 2.68457C152.634 2.68457 141.038 14.3126 141.038 42.2546V105.428C141.038 133.37 152.634 144.998 173.575 144.998C194.516 144.998 206.112 133.37 206.112 105.428V42.2546C206.112 14.3126 194.516 2.68457 173.575 2.68457ZM180.152 103.692C180.152 115.494 179.286 118.965 173.575 118.965C167.864 118.965 166.998 115.494 166.998 103.692V43.9901C166.998 32.1885 167.864 28.7175 173.575 28.7175C179.286 28.7175 180.152 32.1885 180.152 43.9901V103.692Z" fill="white"/>
<path d="M211.388 4.42011V143.262H237.348V4.42011H211.388ZM280.27 4.42011H253.444L237.348 73.8412L253.444 143.262H280.27L263.136 73.8412L280.27 4.42011Z" fill="white"/>
<path d="M332.923 121.658C332.923 99.6473 307.756 45.758 307.756 24.3162C307.756 19.3827 309.27 15.5876 315.514 15.5876C323.462 15.5876 326.489 17.1056 326.489 22.2289C326.489 27.3522 324.029 34.1832 315.514 54.8661H328.003C330.084 41.963 330.084 27.5419 330.084 20.3314C330.084 8.56685 325.354 2.68457 315.514 2.68457C303.593 2.68457 293.564 9.70535 293.564 26.5932C293.564 53.9173 318.731 98.319 318.731 123.366C318.731 128.3 317.217 132.095 310.973 132.095C301.701 132.095 298.106 130.577 298.106 125.074C298.106 119.002 301.701 107.237 310.216 90.9188H296.592C294.889 101.355 294.511 115.207 294.511 127.351C294.511 139.115 299.809 144.998 310.973 144.998C322.894 144.998 332.923 137.977 332.923 121.658Z" fill="white"/>
<path d="M355.928 4.58207H341.736V143.1H376.364V130.766H355.928V4.58207Z" fill="white"/>
<path d="M409.724 4.58207V121.279C409.724 127.92 408.589 132.095 403.669 132.095C399.127 132.095 395.343 130.007 395.343 116.345V4.58207H381.151V122.797C381.151 139.115 388.342 144.998 401.398 144.998C413.698 144.998 423.915 137.977 423.915 119.381V4.58207H409.724Z" fill="white"/>
<path d="M430.471 4.58207V16.9159H446.176V143.1H460.368V16.9159H476.073V4.58207H430.471Z" fill="white"/>
<path d="M519.853 121.658C519.853 99.6473 494.687 45.758 494.687 24.3162C494.687 19.3827 496.2 15.5876 502.445 15.5876C510.392 15.5876 513.42 17.1056 513.42 22.2289C513.42 27.3522 510.96 34.1832 502.445 54.8661H514.933C517.015 41.963 517.015 27.5419 517.015 20.3314C517.015 8.56685 512.284 2.68457 502.445 2.68457C490.524 2.68457 480.495 9.70535 480.495 26.5932C480.495 53.9173 505.662 98.319 505.662 123.366C505.662 128.3 504.148 132.095 497.903 132.095C488.632 132.095 485.036 130.577 485.036 125.074C485.036 119.002 488.632 107.237 497.147 90.9188H483.523C481.82 101.355 481.441 115.207 481.441 127.351C481.441 139.115 486.739 144.998 497.903 144.998C509.824 144.998 519.853 137.977 519.853 121.658Z" fill="white"/>
</svg>
