<svg width="472" height="518" viewBox="0 0 472 518" fill="none" xmlns="http://www.w3.org/2000/svg">
<path fill-rule="evenodd" clip-rule="evenodd" d="M135.396 127.194C121.576 141.061 110.622 145.689 103.404 148.739C97.08 151.41 93.6247 152.87 93.6247 158.27C93.1893 163.076 97.5836 166.556 102.816 170.7L102.816 170.7C105.472 172.803 108.344 175.077 110.909 177.783C119.653 187.003 124.225 200.474 124.572 209.89C106.992 232.517 93.0296 261.022 89.0243 295.532C80.8034 336.294 61.2973 363.305 40.0486 392.728C34.5644 400.322 28.964 408.077 23.4116 416.271C22.4513 418.198 23.4354 420.607 25.74 420.607C26.4816 420.607 35.4221 418.637 48.4957 415.755C75.0978 409.891 118.813 400.255 145.39 395.773C147.192 395.47 149.022 395.853 150.447 397.001C169.974 412.729 199.701 466.574 212.856 493.215C213.865 495.259 216.69 495.443 217.88 493.498C228.478 476.178 266.713 412.826 274.758 387.363C276.173 382.887 277.847 377.902 279.667 372.645C286.312 371.338 292.544 369.755 298.159 367.851C334.748 354.94 351.134 317.251 368.998 276.163L368.998 276.162C383.132 243.654 398.191 209.018 424.913 182.841C428.457 178.867 432.604 175.377 436.447 172.143C445.879 164.205 453.474 157.814 445.798 149.598C399.203 118.426 388.276 85.0553 380.21 60.4233C372.942 38.2268 367.997 23.1265 341.371 23.1265C298.159 23.1265 277.273 52.7568 277.273 52.7568L276.944 52.0285C268.979 34.4347 263.859 23.1265 239.824 23.1265C198.466 23.1265 181.362 53.8481 164.18 84.709C155.611 100.101 147.022 115.527 135.396 127.194Z" fill="#EC1D27"/>
<path fill-rule="evenodd" clip-rule="evenodd" d="M39.0096 394.168C39.3565 393.687 39.7031 393.207 40.0492 392.728C61.2978 363.305 80.8039 336.294 89.0248 295.532C93.0301 261.022 106.993 232.516 124.572 209.889C124.226 200.474 119.653 187.002 110.91 177.782C108.344 175.077 105.472 172.803 102.816 170.699C97.5841 166.556 93.1898 163.075 93.6252 158.27C93.6252 152.87 97.0805 151.41 103.404 148.738C110.622 145.689 121.577 141.061 135.396 127.194C147.023 115.527 155.611 100.101 164.181 84.7087C181.362 53.8478 198.467 23.1262 239.824 23.1262C252.342 23.1262 259.729 26.1933 265.059 31.618C269.964 36.6096 273.127 43.5972 276.944 52.0282L277.274 52.7565C277.274 52.7565 277.623 52.2614 278.324 51.3992C278.324 51.3991 278.324 51.3991 278.324 51.399C280.508 48.7128 286.11 42.4639 295.222 36.5223C305.813 29.6167 321.147 23.1262 341.371 23.1262C367.998 23.1262 372.942 38.2264 380.21 60.423C388.276 85.055 399.203 118.426 445.799 149.597C453.475 157.813 445.879 164.205 436.447 172.143C432.605 175.376 428.457 178.866 424.913 182.841C398.192 209.017 383.133 243.653 368.999 276.162L368.999 276.162C351.134 317.25 334.748 354.939 298.16 367.85C292.544 369.755 286.313 371.337 279.667 372.645C277.847 377.902 276.173 382.887 274.759 387.363C268.618 406.798 244.887 448.31 229.284 474.575C228.931 475.17 228.581 475.757 228.237 476.336C225.173 481.48 222.462 485.972 220.313 489.507C219.394 491.021 218.577 492.359 217.88 493.498C216.69 495.442 213.866 495.259 212.857 493.215C212.218 491.922 211.541 490.566 210.828 489.153C208.733 485.001 206.327 480.361 203.688 475.421C203.408 474.896 203.124 474.367 202.838 473.834C187.874 445.986 165.947 409.485 150.447 397.001C149.023 395.853 147.192 395.469 145.39 395.773C120.122 400.034 79.3607 408.954 52.5452 414.862C51.1568 415.168 49.8058 415.466 48.4962 415.754C47.6592 415.939 46.8391 416.12 46.0371 416.296C39.3219 417.776 33.869 418.975 30.3047 419.729C29.8011 419.836 29.3353 419.933 28.9089 420.022C27.0833 420.4 25.981 420.607 25.7406 420.607C23.4359 420.607 22.4519 418.198 23.4121 416.271C24.1875 415.127 24.9638 413.991 25.7406 412.863C28.8274 408.381 31.9219 404.022 34.9962 399.739C36.3386 397.869 37.6772 396.013 39.0096 394.168ZM141.075 420.013C147.227 426.911 155.445 438.529 164.421 453.146C175.499 471.189 185.881 490.672 192.206 503.483L212.857 493.215L192.207 503.483C200.868 521.023 226.392 523.784 237.519 505.599C242.882 496.835 255.262 476.385 267.358 454.832C278.993 434.099 291.854 409.775 296.727 394.353C296.945 393.664 297.17 392.96 297.402 392.241C300.17 391.483 302.889 390.658 305.54 389.759L305.672 389.714L305.805 389.667C330.22 381.052 347.031 364.306 359.689 345.531C371.788 327.585 381.067 306.241 389.654 286.487L390.122 285.41L390.122 285.41C390.169 285.301 390.217 285.192 390.264 285.083C404.659 251.978 418.12 221.814 441.012 199.39L441.569 198.844L442.088 198.262C444.349 195.726 447.206 193.271 451.256 189.862L436.447 172.143L451.256 189.862C451.526 189.635 451.825 189.386 452.147 189.118C455.964 185.937 463.164 179.937 467.408 172.691C470.204 167.916 472.759 161.043 471.791 152.771C470.833 144.589 466.802 138.266 462.612 133.78L460.794 131.835L458.582 130.355C437.908 116.525 425.861 102.732 418.085 90.2791C410.165 77.5938 406.141 65.5298 402.105 53.2038C401.92 52.639 401.731 52.0589 401.538 51.465C398.412 41.8559 394.117 28.6535 385.71 18.5917C374.818 5.55773 359.696 0 341.371 0C316.098 0 296.575 8.12562 282.941 16.9518C282.092 16.0079 281.203 15.0887 280.272 14.2019C269.435 3.88567 255.715 0 239.824 0C212.405 0 192.125 10.5813 176.708 25.9246C162.781 39.7844 152.853 57.6282 144.755 72.1832C144.522 72.6014 144.291 73.0169 144.062 73.4295C135.139 89.4552 128.049 101.861 119.1 110.841C108.467 121.512 100.678 124.8 94.7546 127.301C94.6565 127.342 94.559 127.383 94.462 127.424C94.2982 127.493 94.1034 127.574 93.881 127.666C91.4901 128.654 85.9105 130.96 81.4496 134.665C78.4063 137.192 75.3734 140.671 73.2656 145.348C71.3747 149.543 70.6938 153.67 70.5927 157.287C70.0203 167.685 74.8156 175.354 78.5953 179.78C81.817 183.553 85.856 186.737 88.0711 188.483C88.2378 188.615 88.3941 188.738 88.539 188.853L88.5391 188.853C88.565 188.873 88.5908 188.894 88.6165 188.914C91.4002 191.12 92.9673 192.409 94.2148 193.725L110.91 177.782L94.2148 193.725C96.1942 195.812 98.0847 198.834 99.5028 202.378C99.7434 202.98 99.9588 203.567 100.151 204.136C83.5123 227.915 70.4664 257.154 66.255 291.832C59.0417 326.621 42.5763 349.818 21.3879 379.158L21.3033 379.275C15.8712 386.797 10.1014 394.786 4.35466 403.267L3.48815 404.545L2.799 405.929C-0.736984 413.025 -1.08191 421.725 2.67978 429.384C6.81768 437.81 15.4635 443.733 25.7406 443.733C27.4566 443.733 28.89 443.527 29.101 443.497L29.1224 443.494C29.6091 443.426 30.0446 443.353 30.3444 443.301C30.9643 443.193 31.6422 443.061 32.2835 442.932C33.5974 442.669 35.3241 442.304 37.3279 441.873C41.3419 441.009 46.882 439.788 53.3594 438.36L53.4409 438.342C77.6323 433.009 114.991 424.78 141.075 420.013Z" fill="#13130C"/>
<path d="M135.397 127.194C109.47 153.211 93.6255 146.707 93.6255 158.27C92.9691 165.515 103.29 169.747 110.91 177.783C120.012 187.381 124.594 201.586 124.594 211.026C124.594 228.026 117.48 254.505 111.286 277.559L110.91 278.96L144.759 375.8C144.759 375.8 247.026 385.195 298.16 367.851C363.697 344.725 364.417 242.102 424.913 182.841C437.157 169.11 456.602 161.161 445.799 149.598C357.215 90.3369 397.546 23.1265 341.371 23.1265C298.16 23.1265 277.274 52.7569 277.274 52.7569C269.116 34.7474 264.19 23.1265 239.824 23.1265C177.84 23.1265 170.334 92.1351 135.397 127.194Z" fill="#EC1D27"/>
<path d="M231.181 56.3699C225.419 56.3699 218.217 61.4288 214.617 61.4288C211.016 61.4288 209.575 58.538 209.575 56.3699C209.575 41.7022 228.911 31.0757 241.263 31.0757C259.268 31.0757 265.03 46.2522 265.03 50.5884C265.03 54.9245 261.429 64.3195 249.906 64.3195C238.383 64.3195 238.383 56.3699 231.181 56.3699Z" fill="white"/>
<path d="M329.848 56.3699C324.086 56.3699 316.884 61.4288 313.284 61.4288C309.683 61.4288 308.242 58.538 308.242 56.3699C308.242 41.7022 327.578 31.0757 339.931 31.0757C357.935 31.0757 363.697 46.2522 363.697 50.5884C363.697 54.9245 360.096 64.3195 348.573 64.3195C337.05 64.3195 337.05 56.3699 329.848 56.3699Z" fill="white"/>
<path d="M130.355 333.161L144.038 187.9C143.318 188.382 141.59 189.056 140.437 187.9C139.285 186.744 128.434 168.628 123.153 159.715C122.673 159.233 122.001 157.981 123.153 156.824C124.593 155.379 169.965 115.631 174.286 112.017C178.608 108.404 190.851 97.5635 210.296 97.5635C229.741 97.5635 237.663 116.353 260.709 116.353C283.756 116.353 293.118 101.177 313.283 101.177C333.449 101.177 348.573 114.908 357.935 130.085C367.298 145.261 384.582 157.547 409.789 160.438C398.746 169.11 371.468 197.629 357.935 223.312C324.806 286.186 319.095 350.219 285.916 417.716C267.182 455.829 237.343 483.428 224.745 496.921L218.938 504.439L200.934 362.792L130.355 333.161Z" fill="#13130C"/>
<path fill-rule="evenodd" clip-rule="evenodd" d="M302.247 308.58L302.294 308.59C299.773 316.752 295.093 329.665 290.075 343.511C284.578 358.681 278.674 374.971 274.758 387.363C266.713 412.825 228.478 476.178 217.88 493.498C216.69 495.442 213.865 495.259 212.856 493.215C199.701 466.573 169.974 412.729 150.447 397.001C149.022 395.853 147.192 395.469 145.39 395.773C118.813 400.254 75.0978 409.89 48.4957 415.754C35.4221 418.636 26.4816 420.607 25.74 420.607C23.4354 420.607 22.4513 418.198 23.4116 416.271C28.964 408.077 34.5644 400.322 40.0486 392.728C61.2973 363.304 80.8034 336.294 89.0243 295.531C98.8386 210.972 168.438 162.462 204.534 148.152L280.154 132.975C292.878 130.566 325.094 129.506 352.173 144.538C379.253 159.57 392.744 164.774 396.105 165.496C347.135 197.233 321.65 255.798 302.247 308.58Z" fill="#EC1D27"/>
<mask id="mask0" mask-type="alpha" maskUnits="userSpaceOnUse" x="23" y="131" width="374" height="364">
<path fill-rule="evenodd" clip-rule="evenodd" d="M302.247 308.58L302.294 308.59C299.773 316.752 295.093 329.665 290.075 343.511C284.578 358.681 278.674 374.971 274.758 387.363C266.713 412.825 228.478 476.178 217.88 493.498C216.69 495.442 213.865 495.259 212.856 493.215C199.701 466.573 169.974 412.729 150.447 397.001C149.022 395.853 147.192 395.469 145.39 395.773C118.813 400.254 75.0978 409.89 48.4957 415.754C35.4221 418.636 26.4816 420.607 25.74 420.607C23.4354 420.607 22.4513 418.198 23.4116 416.271C28.964 408.077 34.5644 400.322 40.0486 392.728C61.2973 363.304 80.8034 336.294 89.0243 295.531C98.8386 210.972 168.438 162.462 204.534 148.152L280.154 132.975C292.878 130.566 325.094 129.506 352.173 144.538C379.253 159.57 392.744 164.774 396.105 165.496C347.135 197.233 321.65 255.798 302.247 308.58Z" fill="#EC1D27"/>
</mask>
<g mask="url(#mask0)">
<path fill-rule="evenodd" clip-rule="evenodd" d="M295.51 299.473C295.206 300.338 294.903 301.2 294.603 302.06C294.511 302.323 294.419 302.586 294.328 302.848C294.164 303.318 294.001 303.786 293.838 304.254C292.882 307.005 293.115 307.239 292.416 309.421C292.19 310.125 291.95 310.861 291.697 311.625C291.533 312.119 291.364 312.626 291.19 313.143C290.77 314.393 290.319 315.71 289.844 317.084L283.778 314.578C284.162 313.47 284.527 312.405 284.872 311.385L284.716 311.837L286.877 305.581C287.805 302.896 288.748 300.185 289.709 297.452L295.51 299.473ZM285.391 329.633L279.973 327.668C278.882 330.698 277.742 333.842 276.58 337.049C275.173 340.931 273.734 344.903 272.314 348.854L277.734 350.815C279.15 346.873 280.587 342.908 281.995 339.025C283.156 335.82 284.298 332.669 285.391 329.633ZM272.167 366.578L266.721 364.69C265.254 368.953 263.894 373.021 262.723 376.727C262.089 378.736 261.197 381.113 260.07 383.814L265.384 386.047C266.553 383.247 267.512 380.7 268.215 378.474C269.367 374.831 270.709 370.813 272.167 366.578ZM260.946 395.88L255.752 393.376C253.619 397.833 251.176 402.649 248.547 407.645L253.642 410.345C256.295 405.303 258.773 400.419 260.946 395.88ZM248.537 419.855L243.485 417.076C240.92 421.77 238.273 426.504 235.641 431.137L240.646 434.001C243.291 429.345 245.954 424.582 248.537 419.855ZM235.27 443.364L230.29 440.457C227.416 445.415 224.647 450.117 222.123 454.365L227.071 457.326C229.605 453.064 232.384 448.343 235.27 443.364ZM221.518 466.596L216.59 463.6C216.079 464.447 215.59 465.254 215.126 466.02C214.739 465.258 214.341 464.48 213.933 463.687L208.813 466.338C210.073 468.789 211.237 471.094 212.288 473.216C212.584 473.813 213.035 474.25 213.555 474.522L214.617 475.532L214.62 475.53L214.623 475.527C214.627 475.524 214.631 475.521 214.636 475.519C214.642 475.515 214.647 475.513 214.651 475.511L215.941 474.663C216.488 474.452 216.98 474.064 217.329 473.492C218.446 471.665 219.866 469.331 221.518 466.596ZM214.642 475.489C214.637 475.498 214.631 475.507 214.625 475.517L214.632 475.503L214.642 475.489ZM204.03 457.227L209.106 454.491C206.779 450.143 204.257 445.546 201.602 440.855L196.592 443.71C199.223 448.359 201.723 452.916 204.03 457.227ZM191.449 434.799L196.409 431.857C193.767 427.372 191.039 422.884 188.279 418.523L183.415 421.623C186.138 425.924 188.834 430.359 191.449 434.799ZM177.794 413.007L182.565 409.767C179.474 405.183 176.37 400.841 173.326 396.932L168.786 400.492C171.73 404.273 174.757 408.503 177.794 413.007ZM162.159 392.631L166.371 388.687C164.32 386.481 162.267 384.496 160.24 382.838C159.39 382.144 158.466 381.59 157.499 381.174L155.228 386.487C155.715 386.696 156.176 386.973 156.6 387.32C158.369 388.767 160.231 390.558 162.159 392.631ZM153.15 386L153.502 380.229C152.518 380.169 151.54 380.226 150.589 380.387C147.828 380.855 144.875 381.381 141.777 381.953L142.821 387.639C145.896 387.071 148.82 386.55 151.547 386.088C152.082 385.998 152.62 385.967 153.15 386ZM131.195 389.866L130.084 384.193C124.465 385.301 118.58 386.501 112.637 387.738L113.807 393.399C119.736 392.165 125.6 390.969 131.195 389.866ZM102.232 395.838L101.036 390.182C95.1059 391.445 89.2468 392.711 83.6638 393.927L84.8861 399.577C90.4629 398.362 96.3129 397.098 102.232 395.838ZM73.3229 402.109L72.0898 396.461C69.044 397.131 66.1497 397.769 63.4523 398.363L63.4305 398.368L63.4253 398.369C61.2467 398.85 59.1973 399.301 57.299 399.719L58.5325 405.366C60.4339 404.948 62.4864 404.496 64.6667 404.015C67.3704 403.419 70.2706 402.78 73.3229 402.109ZM50.3506 407.153L49.6154 403.716C50.1535 402.938 50.6921 402.164 51.2311 401.393L46.515 398.072C45.0422 400.178 43.5695 402.312 42.1005 404.48C41.8499 404.983 41.7465 405.522 41.7766 406.035L42.7004 407.894C43.0888 408.197 43.5916 408.381 44.1952 408.381C44.5312 408.381 46.7389 407.931 50.3506 407.153ZM52.5185 389.612L57.1937 392.991C58.7112 390.877 60.224 388.782 61.7327 386.693L61.7371 386.687C63.6813 383.995 65.6191 381.311 67.533 378.633L62.8508 375.264C60.9453 377.93 59.0145 380.604 57.0674 383.3C55.5595 385.388 54.0418 387.49 52.5185 389.612ZM70.4187 364.449L75.1769 367.709C78.9506 362.163 82.5926 356.519 86.009 350.656L81.0353 347.738C77.7053 353.453 74.1406 358.979 70.4187 364.449ZM87.308 336.121L92.4662 338.697C95.4273 332.725 98.1236 326.476 100.479 319.834L95.0504 317.896C92.7791 324.302 90.1754 330.339 87.308 336.121ZM298.994 288.599L293.582 286.616C295.532 281.258 297.558 275.846 299.675 270.425L305.04 272.534C302.942 277.906 300.931 283.275 298.994 288.599ZM309.305 261.917L303.985 259.699C306.194 254.361 308.502 249.036 310.922 243.764L316.155 246.183C313.769 251.38 311.491 256.638 309.305 261.917ZM321.083 235.86L315.927 233.279C318.531 228.042 321.26 222.881 324.13 217.841L329.133 220.709C326.322 225.645 323.643 230.709 321.083 235.86ZM335.01 210.898C338.094 206.011 341.328 201.287 344.727 196.77L340.13 193.286C336.626 197.942 333.302 202.797 330.142 207.805L335.01 210.898ZM351.889 187.863L347.529 184.083C351.434 179.548 355.55 175.259 359.897 171.271L363.784 175.538C359.619 179.36 355.659 183.484 351.889 187.863ZM403.343 151.113L400.71 145.971C404.825 143.849 409.072 141.566 413.124 139.21L416.013 144.213C411.852 146.632 407.515 148.962 403.343 151.113ZM424.189 139.156C428.733 136.137 432.679 133.08 435.424 130.144L431.223 126.188C428.925 128.645 425.406 131.414 421.009 134.335L424.189 139.156ZM439.442 121.711L433.728 122.456C433.741 122.551 433.769 122.605 433.769 122.605C433.769 122.605 433.755 122.581 433.71 122.526C433.565 122.347 433.156 121.94 432.207 121.413C430.513 120.473 428.829 119.374 427.163 118.19L430.492 113.471C432.044 114.574 433.542 115.547 434.996 116.354C437.801 117.911 439.185 119.723 439.442 121.711ZM424.825 109.138L421.226 113.653C419.861 112.558 418.46 111.41 417.042 110.249L417.03 110.239C414.78 108.396 412.472 106.506 410.047 104.604L413.596 100.049C416.076 101.995 418.429 103.922 420.673 105.759C422.1 106.928 423.482 108.06 424.825 109.138ZM403.808 92.8989L400.616 97.712C395.995 94.6262 391.034 91.7889 385.641 89.5049L387.881 84.1782C393.682 86.6348 398.963 89.6631 403.808 92.8989ZM376.403 80.3386L375.026 85.9525C369.908 84.6879 364.397 83.9624 358.429 83.9919L358.401 78.2104C364.859 78.1785 370.842 78.9646 376.403 80.3386ZM346.352 79.1852L347.228 84.8995C342.049 85.6988 336.529 87.0576 330.638 89.1011L328.756 83.6368C334.953 81.4871 340.809 80.0405 346.352 79.1852ZM317.522 88.1557L319.905 93.4194C314.975 95.6672 309.81 98.3743 304.398 101.6L301.456 96.6285C307.035 93.3041 312.386 90.4974 317.522 88.1557ZM265.943 119.196L250.675 128.447L253.653 133.396L268.921 124.146L265.943 119.196ZM240.496 134.614L243.474 139.563L228.206 148.814L225.228 143.864L240.496 134.614ZM188.433 164.512L191.477 169.421C186.817 172.332 181.906 175.741 176.889 179.63L173.367 175.054C178.533 171.05 183.603 167.529 188.433 164.512ZM163.913 182.853C159.46 186.756 155.001 191.001 150.626 195.575L154.782 199.579C159.037 195.13 163.373 191.002 167.703 187.208L163.913 182.853ZM142.412 204.687L146.798 208.435C143.017 212.89 139.355 217.605 135.876 222.57L131.163 219.245C134.748 214.127 138.521 209.271 142.412 204.687ZM124.451 229.517L129.37 232.527C126.327 237.536 123.489 242.762 120.913 248.197L115.71 245.714C118.376 240.09 121.309 234.688 124.451 229.517ZM110.855 256.991L116.225 259.087C114.112 264.535 112.271 270.169 110.75 275.982L105.178 274.513C106.756 268.479 108.666 262.636 110.855 256.991ZM98.9413 305.275L104.511 306.753C105.364 303.516 106.137 300.187 106.824 296.757L106.869 296.532L106.896 296.305C107.249 293.337 107.688 290.41 108.206 287.523L102.536 286.498C101.998 289.496 101.542 292.537 101.175 295.619C100.511 298.935 99.7647 302.15 98.9413 305.275ZM199.085 158.455L201.694 163.61C204.506 162.176 207.133 160.985 209.532 160.034L209.981 159.856L218.027 154.981L215.05 150.031L207.415 154.657C204.828 155.682 202.036 156.951 199.085 158.455ZM276.122 113.03L279.1 117.979L286.948 113.224L287.15 113.076C289.62 111.268 292.046 109.561 294.427 107.949L291.206 103.156C288.764 104.809 286.281 106.557 283.756 108.404L276.122 113.03ZM394.754 155.428L392.221 150.235C389.893 151.379 387.721 152.429 385.775 153.37C384.803 153.84 383.883 154.285 383.034 154.698L384.876 158.511L380.749 157.623C381.019 157.681 383.283 158.17 384.505 160.409C384.838 160.246 385.186 160.076 385.547 159.901C386.11 159.627 386.704 159.339 387.327 159.038C387.637 158.888 387.953 158.735 388.277 158.578C390.221 157.638 392.408 156.581 394.754 155.428ZM383.124 161.09L381.432 160.726L379.304 156.546C378.39 157.015 377.461 157.51 376.774 157.956L376.748 157.972C376.571 158.086 375.946 158.488 375.344 159.123C373.2 160.546 371.105 162.039 369.057 163.597L372.539 168.204C373.267 167.65 374.001 167.104 374.741 166.568C375.522 166.003 376.31 165.447 377.104 164.902C377.91 164.349 378.722 163.807 379.541 163.276C379.466 163.26 379.444 163.224 379.472 163.169C379.491 163.132 379.531 163.088 379.593 163.035C379.895 162.776 380.702 162.322 381.915 161.7C381.918 161.698 381.921 161.696 381.925 161.695C382.289 161.508 382.689 161.306 383.124 161.09Z" fill="white"/>
<path d="M153.098 386.068V380.596C153.098 380.596 153.098 379.988 155.518 380.596C157.939 381.204 158.544 381.812 158.544 381.812L155.518 386.676L153.098 386.068Z" fill="white"/>
</g>
<path fill-rule="evenodd" clip-rule="evenodd" d="M262.925 168.128L289.517 166.942C306.538 165.424 314.244 162.566 324.086 153.211C324.086 153.211 329.127 164.774 347.852 164.774C366.577 164.774 376.66 151.043 376.66 151.043L362.976 145.984L352.894 127.194L194.452 119.244L191.571 145.984L198.053 143.093C204.677 153.589 221.819 168.387 240.544 161.16C240.318 161.795 240.137 162.379 240 162.916C216.494 179.12 207.035 229.344 198.104 276.764C191.9 309.702 185.951 341.288 175.727 359.178C193.84 343.347 203.292 307.894 213.037 271.343C224.459 228.503 236.283 184.156 262.925 168.128Z" fill="#13130C"/>
<mask id="mask1" mask-type="alpha" maskUnits="userSpaceOnUse" x="121" y="106" width="288" height="311">
<path d="M142.599 196.572L202.375 158.27L121.713 416.994L295.28 384.472C299.601 370.982 308.963 340.677 311.844 327.38C315.445 310.758 337.771 255.833 356.496 224.757C371.476 199.897 397.307 176.337 408.35 167.665C383.143 164.774 365.858 153.934 356.496 138.757C347.133 123.58 332.009 109.849 311.844 109.849C291.679 109.849 282.316 125.026 259.27 125.026C236.224 125.026 228.302 106.236 208.857 106.236C189.411 106.236 177.168 117.076 172.847 120.69C168.526 124.303 123.154 164.051 121.713 165.497C120.561 166.653 121.233 167.906 121.713 168.387C126.995 177.301 137.846 195.416 138.998 196.572C140.15 197.729 141.879 197.054 142.599 196.572Z" fill="black"/>
</mask>
<g mask="url(#mask1)">
<path d="M172.847 121.413V102.623V91.7822H370.899V149.598C368.259 152.488 359.664 158.27 346.413 158.27C333.161 158.27 326.968 145.743 325.527 139.48C321.926 145.743 310.403 158.27 293.119 158.27C275.834 158.27 266.712 145.743 264.311 139.48C260.71 143.816 248.899 152.488 230.462 152.488C212.025 152.488 205.015 137.071 203.815 129.362C201.894 131.771 195.893 136.589 187.251 136.589C178.608 136.589 174.047 126.471 172.847 121.413Z" fill="white"/>
</g>
</svg>
